<?xml version="1.0" encoding="utf-8"?>
<!-- Generator: Adobe Illustrator 23.0.1, SVG Export Plug-In . SVG Version: 6.00 Build 0)  -->
<svg version="1.1" id="Layer_1" xmlns="http://www.w3.org/2000/svg" xmlns:xlink="http://www.w3.org/1999/xlink" x="0px" y="0px"
	 viewBox="0 0 512 158" style="enable-background:new 0 0 512 158;" xml:space="preserve">
<style type="text/css">
	.st0{fill:url(#SVGID_1_);}
	.st1{fill:#333333;}
	.st2{font-family:'Quicksand-Medium';}
	.st3{font-size:87.0876px;}
	.st4{font-family:'Quicksand-Regular';}
	.st5{font-size:44.2863px;}
</style>
<g>
	<linearGradient id="SVGID_1_" gradientUnits="userSpaceOnUse" x1="5.9997" y1="78.1457" x2="141.5638" y2="78.1457">
		<stop  offset="0" style="stop-color:#46C2D2"/>
		<stop  offset="1" style="stop-color:#247ABE"/>
	</linearGradient>
	<path class="st0" d="M139.48,74.34c-0.42-0.88-1.47-1.86-1.29-2.57c2-8.38-2.83-15.02-5.35-22.27c-1.42-4.09-2.88-8.02-6.38-10.81
		c-1.31-1.04-2.36-2.24-2.73-3.94c-0.06-0.31-0.25-0.61-0.32-0.93c-1.48-6.56-8.98-6.54-12.1-10.95c-3.84-5.41-8.34-7.52-14.71-6.18
		c-0.88,0.18-1.94-0.11-2.84-0.39c-4.12-1.29-8.94-1.71-12.51,1.17c-3.76,3.04-5.16,8.78-5.37,13.39c-0.09,1.82,0.1,3.63,0.04,5.44
		c-0.06,1.94,0.09,3.85,0.11,5.76c0,0.38,0,0.77-0.01,1.14c-0.05,1.98-0.03,4.05,0.79,5.9c0.52,1.16,1.36,2.21,2.49,2.8
		c0.65,0.33,1.41,0.55,1.84,1.13c1.11,1.54-0.42,3.77-0.89,5.31c-0.03,0.1-0.06,0.2-0.1,0.31c-1.66-1.43-3.8-2.31-6.15-2.31
		c-2.51,0-4.78,0.99-6.49,2.61c-0.06-0.2-0.13-0.41-0.18-0.61c-0.47-1.53-2.01-3.76-0.89-5.31c0.43-0.59,1.2-0.8,1.84-1.13
		c1.13-0.58,1.98-1.64,2.49-2.8c0.81-1.85,0.83-3.92,0.79-5.9c-0.01-0.39-0.01-0.77-0.01-1.14c0.02-1.93,0.16-3.82,0.11-5.76
		c-0.05-1.82,0.13-3.62,0.04-5.44c-0.22-4.61-1.61-10.35-5.37-13.39c-3.56-2.89-8.39-2.47-12.51-1.17c-0.9,0.29-1.96,0.58-2.84,0.39
		c-6.37-1.34-10.87,0.78-14.71,6.18c-3.12,4.41-10.63,4.39-12.1,10.95c-0.08,0.31-0.25,0.61-0.32,0.93
		c-0.37,1.69-1.41,2.89-2.73,3.94c-3.5,2.79-4.96,6.71-6.38,10.81c-2.52,7.26-7.36,13.89-5.35,22.27c0.17,0.71-0.88,1.69-1.29,2.57
		c-2.75,5.85-2.87,11.77,0.17,17.48c1.15,2.18,1.63,3.97,0.81,6.41c-1.47,4.37-0.36,8.47,2.77,11.83c1.64,1.76,2.41,3.54,2.68,5.99
		c0.85,7.53,6.15,13.81,12.52,14.6c2.61,0.32,3.89,1.33,5.32,3.34c5.51,7.74,14.05,9.08,21.97,3.9C61.67,133.1,65.8,125.9,68.52,118
		c1.5-4.35,1.92-8.77,1.87-13.34c-0.01-0.71-0.08-1.41-0.17-2.11c1.16,0.51,2.43,0.8,3.78,0.8c1.17,0,2.3-0.23,3.33-0.62
		c-0.08,0.64-0.14,1.28-0.14,1.93c-0.04,4.57,0.38,8.99,1.87,13.34c2.73,7.89,6.85,15.08,14.19,19.89
		c7.92,5.17,16.46,3.84,21.97-3.9c1.43-2.01,2.73-3.02,5.32-3.34c6.36-0.79,11.67-7.06,12.52-14.6c0.28-2.45,1.06-4.23,2.68-5.99
		c3.12-3.36,4.22-7.46,2.76-11.83c-0.82-2.46-0.35-4.23,0.81-6.41C142.34,86.11,142.23,80.19,139.48,74.34z M79.77,69.22l1.58-2.17
		c0.27-0.37,0.78-0.45,1.14-0.18c0.37,0.27,0.45,0.78,0.18,1.14l-1.58,2.17c-0.27,0.37-0.78,0.45-1.14,0.18
		C79.59,70.09,79.5,69.58,79.77,69.22z M73.52,65.11c0-0.45,0.37-0.82,0.82-0.82c0.45,0,0.82,0.37,0.82,0.82v2.68
		c0,0.45-0.37,0.82-0.82,0.82c-0.45,0-0.82-0.37-0.82-0.82V65.11z M62.9,105.04c-0.05,0.09-0.12,0.17-0.19,0.25
		c-0.39,0.39-1,0.47-1.49,0.18c-0.46-0.28-0.9-0.61-1.28-1l-1.92-1.92l-7.68,7.68c0.71,1.44,0.47,3.24-0.72,4.44
		c-1.5,1.5-3.94,1.5-5.45,0c-1.5-1.5-1.5-3.94,0-5.45c1.2-1.2,3-1.44,4.44-0.72l7.68-7.68l-1.97-1.97l-3.77,3.77
		c-0.47,0.47-1.26,0.47-1.73,0c-0.48-0.48-0.48-1.26,0-1.73l3.77-3.77l-1.97-1.97l-13.97,13.97c-0.48,0.48-1.26,0.48-1.73,0
		c-0.47-0.47-0.47-1.26,0-1.73L48.85,93.4l-1.97-1.97l-3.77,3.77c-0.47,0.48-1.26,0.48-1.73,0c-0.48-0.47-0.48-1.26,0-1.73
		l3.77-3.77l-1.97-1.97l-2.62,2.62c-0.98,0.98-2.27,1.51-3.65,1.51H25.48c-0.18,0.56-0.51,1.07-0.93,1.5
		c-0.73,0.73-1.69,1.13-2.73,1.13c-1.03,0-1.99-0.4-2.73-1.13c-0.73-0.73-1.13-1.69-1.13-2.73c0-1.03,0.4-1.99,1.13-2.73
		c0.73-0.73,1.69-1.13,2.73-1.13c1.02,0,1.99,0.4,2.73,1.13c0.43,0.43,0.74,0.94,0.93,1.5h11.42c0.72,0,1.4-0.28,1.92-0.8l2.62-2.62
		l-1.92-1.92c-2.52-2.52-2.52-6.64,0-9.16l1.92-1.92l-7.68-7.68c-1.44,0.71-3.24,0.47-4.44-0.72c-1.5-1.5-1.5-3.94,0-5.45
		c1.5-1.51,3.94-1.5,5.45,0c1.2,1.2,1.44,3,0.72,4.44l7.68,7.68l1.97-1.97l-3.77-3.77c-0.48-0.48-0.48-1.26,0-1.73
		c0.47-0.48,1.26-0.48,1.73,0l3.77,3.77l1.97-1.97L34.88,51.59c-0.47-0.48-0.47-1.26,0-1.73c0.47-0.47,1.26-0.47,1.73,0l13.97,13.97
		l1.97-1.97l-3.77-3.77c-0.48-0.48-0.48-1.26,0-1.73c0.47-0.48,1.26-0.48,1.73,0l3.77,3.77l1.97-1.97l-2.62-2.62
		c-0.97-0.98-1.51-2.27-1.51-3.65V40.46c-1.52-0.52-2.63-1.95-2.63-3.65c0-2.12,1.72-3.85,3.85-3.85c2.12,0,3.86,1.72,3.86,3.85
		c0,1.07-0.43,2.03-1.13,2.73c-0.42,0.42-0.93,0.73-1.5,0.93v11.42c0,0.72,0.28,1.4,0.8,1.92L58,56.41l1.92-1.92
		c0.39-0.39,0.82-0.72,1.29-1c0.58-0.35,1.34-0.15,1.68,0.43c0.34,0.58,0.15,1.34-0.43,1.68c-0.29,0.17-0.56,0.38-0.8,0.63
		L41.26,76.64c-1.57,1.57-1.57,4.12,0,5.69l20.41,20.41c0.24,0.24,0.51,0.45,0.8,0.63C63.05,103.7,63.25,104.46,62.9,105.04z
		 M62.72,79.78h-2.68c-0.45,0-0.82-0.37-0.82-0.82c0-0.45,0.37-0.82,0.82-0.82h2.68c0.45,0,0.82,0.37,0.82,0.82
		C63.54,79.42,63.17,79.78,62.72,79.78z M65.06,73.92c-0.18,0.42-0.66,0.61-1.07,0.43l-2.47-1.05c-0.42-0.18-0.61-0.66-0.43-1.07
		c0.18-0.42,0.66-0.61,1.07-0.43l2.47,1.05C65.05,73.02,65.24,73.5,65.06,73.92z M65.79,66.86c0.37-0.27,0.88-0.18,1.14,0.18
		l1.58,2.17c0.27,0.37,0.18,0.88-0.18,1.14c-0.37,0.27-0.88,0.18-1.14-0.18l-1.58-2.17C65.35,67.64,65.43,67.13,65.79,66.86z
		 M77.98,87v4.45c0,1.34-1.09,2.42-2.42,2.42v1.21c0,0.67-0.54,1.21-1.21,1.21s-1.21-0.54-1.21-1.21v-1.21
		c-1.34,0-2.42-1.09-2.42-2.42V87c-3.89-1.84-5.79-6.32-4.4-10.4c1.39-4.08,5.63-6.47,9.83-5.55c3.55,0.77,6.21,3.71,6.62,7.32
		C83.19,81.98,81.26,85.45,77.98,87z M126.79,93.34c-0.73,0.73-1.69,1.13-2.73,1.13c-1.02,0-1.99-0.4-2.73-1.13
		c-0.43-0.43-0.74-0.94-0.93-1.5h-11.42c-1.38,0-2.67-0.54-3.65-1.51l-2.62-2.62l-1.97,1.97l3.77,3.77c0.48,0.48,0.48,1.26,0,1.73
		c-0.47,0.48-1.26,0.48-1.73,0l-3.77-3.77l-1.97,1.97l13.97,13.97c0.47,0.48,0.47,1.26,0,1.73c-0.47,0.48-1.26,0.48-1.73,0
		L95.3,95.14l-1.97,1.97l3.77,3.77c0.47,0.48,0.47,1.26,0,1.73c-0.48,0.47-1.26,0.47-1.73,0l-3.77-3.77l-1.97,1.97l7.68,7.68
		c1.44-0.71,3.24-0.47,4.44,0.72c1.5,1.5,1.5,3.94,0,5.45c-1.5,1.51-3.94,1.5-5.45,0c-1.2-1.2-1.44-3-0.72-4.44l-7.68-7.68
		l-1.92,1.92c-0.39,0.39-0.82,0.72-1.28,1c-0.5,0.29-1.11,0.19-1.49-0.18c-0.08-0.08-0.14-0.15-0.19-0.25
		c-0.34-0.58-0.15-1.34,0.43-1.68c0.29-0.17,0.56-0.38,0.8-0.63l20.42-20.41c1.56-1.57,1.56-4.12,0-5.69L84.23,56.23
		c-0.24-0.24-0.51-0.45-0.8-0.63c-0.58-0.34-0.78-1.1-0.43-1.68c0.35-0.58,1.1-0.78,1.68-0.43c0.46,0.28,0.9,0.61,1.29,1l1.92,1.92
		l2.62-2.62c0.52-0.52,0.8-1.2,0.8-1.92V40.46c-0.57-0.19-1.08-0.51-1.5-0.93c-0.7-0.7-1.13-1.66-1.13-2.73
		c0-2.12,1.72-3.85,3.86-3.85c2.12,0,3.85,1.72,3.86,3.85c0,1.69-1.1,3.14-2.63,3.65v11.42c0,1.38-0.54,2.67-1.51,3.65l-2.62,2.62
		l1.97,1.97l3.77-3.77c0.47-0.48,1.26-0.48,1.73,0c0.47,0.47,0.47,1.26,0,1.73l-3.77,3.77l1.97,1.97l13.97-13.97
		c0.48-0.47,1.26-0.47,1.73,0c0.47,0.48,0.47,1.26,0,1.73L97.04,65.56l1.97,1.97l3.77-3.77c0.47-0.48,1.26-0.48,1.73,0
		c0.47,0.47,0.47,1.26,0,1.73l-3.77,3.77l1.97,1.97l7.68-7.68c-0.71-1.44-0.47-3.24,0.72-4.44c1.5-1.5,3.94-1.5,5.45,0
		c1.51,1.5,1.5,3.94,0,5.45c-1.2,1.2-3,1.44-4.44,0.72l-7.68,7.68l1.92,1.92c2.52,2.52,2.52,6.64,0,9.16l-1.92,1.92l2.62,2.62
		c0.51,0.52,1.2,0.8,1.92,0.8h11.42c0.18-0.56,0.5-1.07,0.93-1.5c0.73-0.73,1.69-1.13,2.73-1.13c1.02,0,1.99,0.4,2.73,1.13
		c0.73,0.73,1.13,1.69,1.13,2.73C127.92,91.65,127.52,92.62,126.79,93.34z M87.01,73.3l-2.47,1.05c-0.42,0.18-0.9-0.02-1.07-0.43
		c-0.18-0.42,0.02-0.9,0.43-1.07l2.47-1.05c0.42-0.18,0.9,0.02,1.07,0.43C87.62,72.65,87.43,73.13,87.01,73.3z M88.19,78.15
		c0.45,0,0.82,0.37,0.82,0.82c0,0.45-0.37,0.82-0.82,0.82h-2.68c-0.45,0-0.82-0.37-0.82-0.82c0-0.45,0.37-0.82,0.82-0.82H88.19z"/>
	<g>
		<text transform="matrix(1 0 0 1 154.9564 84.0908)" class="st1 st2 st3">MindcliQ</text>
		<text transform="matrix(1 0 0 1 154.9554 138.3662)" class="st1 st4 st5">Software Pvt Ltd</text>
	</g>
</g>
</svg>
